HIERARCHY
ROOT Hips
{
OFFSET -0.1795 -22.3333 2.8219000000000003
	CHANNELS 6 Xposition Yposition Zposition Zrotation Yrotation Xrotation 
	JOINT LeftUpLeg
	{
OFFSET 6.952 -9.140600000000001 -0.6815
		CHANNELS 3 Zrotation Yrotation Xrotation
		JOINT LeftLeg
		{
OFFSET 3.4277 -37.5199 -0.4496
			CHANNELS 3 Zrotation Yrotation Xrotation
			JOINT LeftFoot
			{
OFFSET -1.3596000000000001 -39.7961 -4.3693
				CHANNELS 3 Zrotation Yrotation Xrotation
				JOINT LeftToe
				{
OFFSET 2.6358 -5.5791 11.9288
					CHANNELS 3 Zrotation Yrotation Xrotation
					End Site
					{
OFFSET 0.0 0.0 0.0
					}
				}
			}
		}
	}
	JOINT RightUpLeg
	{
OFFSET -6.7669999999999995 -9.052200000000001 -0.432
		CHANNELS 3 Zrotation Yrotation Xrotation
		JOINT RightLeg
		{
OFFSET -3.8289999999999997 -38.2569 -0.885
			CHANNELS 3 Zrotation Yrotation Xrotation
			JOINT RightFoot
			{
OFFSET 1.5774 -39.8415 -4.2312
				CHANNELS 3 Zrotation Yrotation Xrotation
				JOINT RightToe
				{
OFFSET -2.5372 -4.8144 12.3348
					CHANNELS 3 Zrotation Yrotation Xrotation
					End Site
					{
OFFSET 0.0 0.0 0.0
					}
				}
			}
		}
	}
	JOINT Spine
	{
OFFSET -0.2533 10.8963 -2.6696
		CHANNELS 3 Zrotation Yrotation Xrotation
		JOINT Spine1
		{
OFFSET 0.5487 13.517999999999999 0.1092
			CHANNELS 3 Zrotation Yrotation Xrotation
			JOINT Spine2
			{
OFFSET 0.1457 5.292199999999999 2.5425
				CHANNELS 3 Zrotation Yrotation Xrotation
				JOINT Neck
				{
OFFSET -0.2778 21.387 -4.2857
					CHANNELS 3 Zrotation Yrotation Xrotation
					JOINT Head
					{
OFFSET 0.5152 6.497 5.1349
						CHANNELS 3 Zrotation Yrotation Xrotation
						End Site
						{
OFFSET 0.0 0.0 0.0
						}
					}
				}
				JOINT LeftShoulder
				{
OFFSET 7.8845 12.1749 -3.4090000000000003
					CHANNELS 3 Zrotation Yrotation Xrotation
					JOINT LeftArm
					{
OFFSET 9.0977 3.0469 -0.8867999999999999
						CHANNELS 3 Zrotation Yrotation Xrotation
						JOINT LeftForeArm
						{
OFFSET 25.9612 -1.2772000000000001 -2.7456
							CHANNELS 3 Zrotation Yrotation Xrotation
							JOINT LeftHand
							{
OFFSET 24.9234 0.8986 -0.1171
								CHANNELS 3 Zrotation Yrotation Xrotation
								End Site
								{
OFFSET 0.0 0.0 0.0
								}
							}
						}
					}
				}
				JOINT RightShoulder
				{
OFFSET -8.1759 11.8833 -3.8614999999999995
					CHANNELS 3 Zrotation Yrotation Xrotation
					JOINT RightArm
					{
OFFSET -9.6012 3.2550999999999997 -0.9143
						CHANNELS 3 Zrotation Yrotation Xrotation
						JOINT RightForeArm
						{
OFFSET -25.374200000000002 -1.3329 -2.1401
							CHANNELS 3 Zrotation Yrotation Xrotation
							JOINT RightHand
							{
OFFSET -25.5298 0.7772 -0.5559
								CHANNELS 3 Zrotation Yrotation Xrotation
								End Site
								{
OFFSET 0.0 0.0 0.0
								}
							}
						}
					}
				}
			}
		}
	}
}
MOTION
Frames: 17
Frame Time: 0.050000
-1.4724 94.74470000000001 1.9864 0.514163 -6.669061 -0.379009 -7.849077 -3.401992 -22.993159 4.078468 -1.859447 26.463738 -2.890910 -1.757213 9.714763 0.000000 0.000000 0.000000 3.772116 -0.608993 3.937769 1.362456 2.507014 42.753940 -1.095254 -6.090120 7.503161 0.000000 0.000000 0.000000 2.069261 -0.252203 4.174264 -1.873256 0.885873 -1.028565 -3.245122 16.200245 10.642089 12.638110 -4.634899 -19.407121 0.000000 0.000000 0.000000 -17.058034 6.104774 -7.406941 -37.515008 18.177729 -9.357722 -120.270973 -47.402809 72.563505 0.000000 0.000000 0.000000 9.888762 -6.057692 -2.088212 47.593551 4.597043 -3.387830 145.158028 60.486721 140.095347 0.000000 0.000000 0.000000
-2.0149 92.242 1.2711999999999999 0.412099 -7.202266 -1.419707 -8.005317 -3.292187 -21.896693 4.174418 -2.064576 32.825273 -0.725829 -2.054478 -1.214963 0.000000 0.000000 0.000000 2.847470 0.470450 -4.531184 4.452413 2.395584 60.344624 -1.819720 -7.120485 6.384732 0.000000 0.000000 0.000000 0.503333 -0.264264 6.295634 -0.703801 0.340700 0.731305 -4.573894 16.073833 9.744236 11.461589 -3.071902 -23.100240 0.000000 0.000000 0.000000 -20.115113 3.807426 -7.287208 -39.046296 13.313155 -8.050709 -120.513200 -47.897148 73.561044 0.000000 0.000000 0.000000 12.075483 -4.982570 -1.504824 46.792827 2.220035 -4.400374 142.960294 61.464837 137.138341 0.000000 0.000000 0.000000
-2.7794 91.5126 0.014899999999999998 0.196623 -6.172931 -1.749538 -6.967086 -2.747169 -18.948847 2.365330 -1.458316 35.041539 1.380856 -0.083445 -7.788435 0.000000 0.000000 0.000000 2.394655 1.716223 -14.141425 6.794268 0.726099 70.787863 -4.105153 -12.408733 9.167099 0.000000 0.000000 0.000000 1.242857 -0.403562 8.519822 -1.666785 0.794177 -0.792575 -5.264643 13.204427 11.276957 11.971513 -3.575687 -23.783387 0.000000 0.000000 0.000000 -20.193571 0.332317 -4.857205 -42.583190 8.201367 -7.466095 -122.832054 -49.371452 79.448566 0.000000 0.000000 0.000000 11.932612 -6.582127 -2.586311 49.958315 -0.163960 -5.517516 135.626665 60.807228 124.083576 0.000000 0.000000 0.000000
-3.576 91.4773 -1.2788000000000002 -0.600956 -7.900497 -2.785139 -4.399457 -1.756459 -14.004874 0.360803 -0.299519 34.498572 1.485815 -0.496883 -9.766735 0.000000 0.000000 0.000000 3.644745 2.691061 -19.394550 7.037947 1.420820 72.749254 -5.683350 -14.799596 4.048308 0.000000 0.000000 0.000000 2.426448 -0.575689 10.651135 -1.837080 0.869785 -0.874189 -6.417440 9.711374 11.654750 12.411316 -4.129760 -25.125427 0.000000 0.000000 0.000000 -19.314882 -1.438899 -2.561642 -45.986147 1.567499 -6.203342 -127.204393 -52.098213 91.173795 0.000000 0.000000 0.000000 13.300929 -4.477695 -2.169313 49.277578 -0.790790 -5.843751 134.050040 58.409120 115.774415 0.000000 0.000000 0.000000
-4.3235 92.3468 -2.5464 -2.200156 -8.120285 -1.591251 -2.734456 -1.095246 -9.685284 1.075380 -0.635337 28.717941 1.620710 0.215900 -9.186080 0.000000 0.000000 0.000000 3.971139 3.634069 -24.627706 7.331702 0.747703 66.212830 -6.960997 -17.386027 1.654043 0.000000 0.000000 0.000000 3.147992 -0.647564 10.487269 -0.979112 0.464738 -0.447558 -6.000937 4.810128 11.191887 10.790257 -3.815874 -25.307638 0.000000 0.000000 0.000000 -19.790179 -3.719716 -0.067038 -45.231467 -5.540976 -3.871685 -134.077254 -56.340605 109.168801 0.000000 0.000000 0.000000 12.338790 -4.115607 -2.674155 47.962106 -3.566587 -6.592059 135.157583 54.571325 108.720640 0.000000 0.000000 0.000000
-5.0252 94.5105 -3.6255 -3.348441 -8.783011 0.143359 -0.841337 -0.606017 -6.177554 1.145876 -0.605653 22.379497 0.272297 -0.312096 -2.477554 0.000000 0.000000 0.000000 5.079235 4.319242 -27.007324 5.146040 1.620867 53.175612 -6.863491 -17.331593 2.272591 0.000000 0.000000 0.000000 4.067500 -0.667745 9.116337 -0.540024 0.261501 0.207604 -5.390220 0.655267 10.495462 9.517079 -3.935866 -23.641409 0.000000 0.000000 0.000000 -18.028617 -3.658810 1.145002 -45.397437 -9.432841 -2.731980 -142.590450 -57.829205 126.617581 0.000000 0.000000 0.000000 10.886333 -3.724093 -2.945750 46.449448 -4.843489 -6.691355 134.269287 53.081106 101.663028 0.000000 0.000000 0.000000
-5.7206 97.3603 -4.4782 -3.977986 -8.135380 2.373877 0.573443 -0.506903 -5.886365 1.092015 -0.604212 19.647456 -1.919396 -1.596893 6.051727 0.000000 0.000000 0.000000 6.332186 4.446865 -26.663494 2.132391 2.025262 39.857092 -4.517276 -12.929064 5.399940 0.000000 0.000000 0.000000 5.206747 -0.612254 6.529648 0.315107 -0.138314 -1.132977 -5.269355 -1.541360 11.559176 6.947772 -2.982039 -22.550067 0.000000 0.000000 0.000000 -16.401128 -2.319773 0.963516 -46.068812 -10.179070 -2.613627 -146.919873 -56.717811 134.283092 0.000000 0.000000 0.000000 9.052180 -4.703933 -3.290138 47.453264 -8.615623 -8.359765 132.951492 48.681211 92.179536 0.000000 0.000000 0.000000
-6.4609 98.8712 -5.1783 -3.854010 -6.424309 4.264049 1.684350 -0.737333 -9.799504 0.260354 -0.466870 26.578060 -2.076198 -1.183163 7.485935 0.000000 0.000000 0.000000 7.652147 3.877390 -23.131482 -0.514338 2.191836 31.297756 -2.493715 -9.297133 7.730092 0.000000 0.000000 0.000000 4.969818 -0.297300 2.265159 1.075073 -0.528725 1.938673 -4.297997 -1.141793 8.777417 6.234065 -2.449502 -21.386417 0.000000 0.000000 0.000000 -16.316441 -4.923718 1.937356 -46.081747 -10.905700 -2.009763 -147.469151 -56.662281 133.733032 0.000000 0.000000 0.000000 6.319708 -6.717841 -3.487733 48.695748 -11.941932 -9.686425 136.136552 45.991877 93.794740 0.000000 0.000000 0.000000
-7.2562 97.7324 -5.9036 -2.796166 -5.354605 3.825192 2.543891 -0.962681 -14.705350 -1.366658 0.222792 39.872563 -0.750046 1.039464 6.496252 0.000000 0.000000 0.000000 8.318457 2.678387 -16.592398 -1.528753 2.166046 27.788011 -1.481172 -6.625090 6.482391 0.000000 0.000000 0.000000 4.606262 -0.255734 2.004443 0.813602 -0.395926 1.028743 -4.527633 -0.214635 8.344969 6.500528 -2.967736 -17.117546 0.000000 0.000000 0.000000 -15.628727 -2.766733 0.489308 -46.646262 -11.055417 -1.824489 -145.020874 -55.682786 127.678263 0.000000 0.000000 0.000000 5.797930 -5.544736 -2.834457 50.637807 -12.386138 -10.215745 137.288340 47.635182 99.209144 0.000000 0.000000 0.000000
-8.1805 94.5638 -7.184500000000001 -1.825627 -4.812849 1.972483 1.957505 -1.367460 -20.200921 0.155392 -0.679556 56.791023 2.115307 5.422265 2.980403 0.000000 0.000000 0.000000 9.068969 1.836723 -11.600811 -1.354554 1.970266 26.714231 -2.890900 -6.249191 -2.398074 0.000000 0.000000 0.000000 4.112834 -0.388022 4.352568 -0.483092 0.234840 -0.233801 -3.776488 2.947330 9.645667 7.937784 -3.195186 -19.342990 0.000000 0.000000 0.000000 -15.767691 -2.914311 -0.105064 -44.992144 -8.808040 -2.558959 -146.357641 -55.795577 127.476845 0.000000 0.000000 0.000000 9.936384 -7.106853 -3.852587 47.700951 -7.514573 -7.766177 143.022913 52.449784 117.601409 0.000000 0.000000 0.000000
-9.0756 91.9979 -8.8537 -2.730365 -6.527648 1.440871 3.306615 -1.293845 -26.683027 1.773892 -1.372930 67.451541 2.939231 5.802148 -1.209827 0.000000 0.000000 0.000000 10.616278 1.406044 -8.838330 -1.569918 2.046026 25.354120 -4.345794 -6.316778 -10.262775 0.000000 0.000000 0.000000 4.531836 -0.528979 6.110844 -1.710009 0.802465 -1.568409 -2.016068 6.407497 11.211208 8.257520 -2.418234 -24.022601 0.000000 0.000000 0.000000 -16.407142 -0.483222 -1.830532 -42.989515 -4.607997 -3.874584 -144.425846 -57.931564 124.923869 0.000000 0.000000 0.000000 12.374533 -5.565886 -3.128582 47.459562 1.446932 -4.664242 150.517701 59.613167 139.439907 0.000000 0.000000 0.000000
-9.829699999999999 93.0404 -10.0272 -2.276457 -8.146243 2.583428 2.452506 -1.548703 -32.470270 2.559034 -1.416724 66.539244 3.617606 6.820574 -2.691855 0.000000 0.000000 0.000000 10.485703 1.035957 -7.267058 -2.685283 2.053118 21.086205 -3.972725 -5.826830 -8.341180 0.000000 0.000000 0.000000 3.901887 -0.454864 5.454842 -2.993056 1.379841 -1.848550 -1.575367 9.937306 10.652521 8.212820 -2.137981 -23.304350 0.000000 0.000000 0.000000 -15.409331 2.450631 -3.675151 -41.535504 2.056031 -5.678570 -137.854587 -58.661557 113.979621 0.000000 0.000000 0.000000 13.137192 -6.156275 -3.123735 50.106835 6.377735 -2.871583 155.982502 60.854911 151.604200 0.000000 0.000000 0.000000
-10.4057 95.9957 -10.6518 -1.917203 -9.549225 3.933299 0.700263 -1.945951 -33.735086 3.885435 -1.896261 56.319612 2.137590 4.091328 -1.218345 0.000000 0.000000 0.000000 10.465455 0.671701 -5.693205 -4.559925 2.084324 16.551860 -1.608140 -4.032348 0.061349 0.000000 0.000000 0.000000 2.747532 -0.275369 3.426962 -3.737753 1.689455 -2.430336 -0.486753 12.112855 10.144869 8.795463 -2.583584 -21.517030 0.000000 0.000000 0.000000 -13.772682 6.183000 -5.321448 -41.760007 8.272207 -7.664051 -125.261843 -55.027913 91.717422 0.000000 0.000000 0.000000 10.737175 -6.627159 -3.030594 54.581898 9.303179 -1.415664 156.604433 58.979462 152.979889 0.000000 0.000000 0.000000
-10.7979 98.5124 -11.0817 -1.892134 -10.731635 4.722444 -1.176668 -2.199456 -29.652696 3.917631 -1.561318 41.828103 2.186873 5.496043 3.750658 0.000000 0.000000 0.000000 9.498650 0.969354 -7.505685 -3.864069 2.305485 19.494955 0.119335 -3.423777 6.082868 0.000000 0.000000 0.000000 2.042985 -0.151549 1.749764 -3.693927 1.652133 -2.636511 -0.220213 14.451370 9.575921 9.483465 -3.434656 -17.980288 0.000000 0.000000 0.000000 -11.459795 6.207530 -5.000849 -42.116905 12.693927 -9.195389 -122.135949 -51.277432 81.869509 0.000000 0.000000 0.000000 11.119462 -6.466967 -2.782881 56.227876 11.349131 -0.293678 155.180518 57.873061 151.375211 0.000000 0.000000 0.000000
-11.0238 98.9473 -11.5148 -3.159176 -11.054432 4.151924 -1.984294 -2.139017 -25.138278 3.373751 -1.248753 33.660056 1.251004 4.683017 7.985601 0.000000 0.000000 0.000000 9.556960 1.545253 -10.308241 -1.285454 2.798238 29.612156 0.211068 -3.865505 7.408181 0.000000 0.000000 0.000000 2.686117 -0.209116 2.377980 -3.376708 1.562342 -1.327779 -0.240351 14.833630 8.560971 9.276995 -3.441030 -17.085193 0.000000 0.000000 0.000000 -11.764320 6.335786 -5.181114 -40.904129 15.177584 -9.612886 -124.591919 -51.865282 85.504662 0.000000 0.000000 0.000000 10.088862 -5.641405 -2.339693 55.049294 11.925015 0.057571 155.706428 55.809803 150.906003 0.000000 0.000000 0.000000
-11.1466 96.5189 -11.989700000000001 -3.496750 -9.443787 1.418386 -3.118065 -2.015471 -19.252651 1.997246 -0.844322 33.372024 0.607995 2.347941 3.327185 0.000000 0.000000 0.000000 8.581396 2.297544 -14.076780 3.582533 2.047984 44.227607 -2.797508 -8.813179 4.467224 0.000000 0.000000 0.000000 3.117468 -0.340985 4.616965 -1.771962 0.831916 -0.910633 -1.364533 11.733835 11.076067 9.701989 -3.395084 -20.253637 0.000000 0.000000 0.000000 -12.646339 7.351826 -5.530066 -41.253268 12.312574 -8.977472 -126.224727 -54.273883 92.013509 0.000000 0.000000 0.000000 12.117264 -5.635197 -2.623382 53.169542 12.587391 -0.214455 149.053711 56.451018 138.241443 0.000000 0.000000 0.000000
-11.2221 92.958 -12.8216 -3.157134 -9.568295 0.774069 -4.861251 -2.010244 -16.398761 1.032221 -0.363255 35.142598 4.224210 7.518761 -7.435375 0.000000 0.000000 0.000000 5.862184 3.277748 -20.816014 7.009668 0.887337 54.575799 -8.054661 -19.683194 -0.242715 0.000000 0.000000 0.000000 3.575822 -0.384282 5.065076 -1.954767 0.924645 -0.626861 -1.635621 10.102113 11.739367 7.884580 -2.576329 -20.031667 0.000000 0.000000 0.000000 -16.814805 2.677748 -3.922510 -39.659612 7.891637 -7.229899 -133.897912 -60.543164 110.858660 0.000000 0.000000 0.000000 13.427830 -5.130653 -2.681029 52.306252 7.389624 -2.662658 138.555989 57.916864 121.414319 0.000000 0.000000 0.000000
